<?xml version="1.0" encoding="UTF-8"?>
<svg version="1.1" xmlns="http://www.w3.org/2000/svg" width="890" height="890">
<path d="M0 0 C8.90073594 8.39029947 14.97212694 18.70699287 18.375 30.4375 C18.375 31.4275 18.375 32.4175 18.375 33.4375 C119.685 33.4375 220.995 33.4375 325.375 33.4375 C326.035 30.4675 326.695 27.4975 327.375 24.4375 C331.13239285 15.45514536 336.48323476 8.24234207 343.375 1.4375 C343.91511719 0.87546875 344.45523438 0.3134375 345.01171875 -0.265625 C356.09572768 -10.87500383 371.52924612 -14.41162852 386.375 -14.5625 C398.69627404 -13.75503787 409.573768 -8.90866612 419.375 -1.5625 C420.26251953 -0.93988281 420.26251953 -0.93988281 421.16796875 -0.3046875 C432.73165437 8.53346123 439.73578004 23.75851293 442.09375 37.79296875 C444.36027193 59.1045708 437.96757915 75.64739446 425.375 92.4375 C464.975 171.6375 504.575 250.8375 545.375 332.4375 C550.985 332.1075 556.595 331.7775 562.375 331.4375 C579.81912141 333.16464073 593.95963653 341.21523542 605.375 354.4375 C615.80733936 367.82951713 619.8217788 384.63988569 618.375 401.4375 C615.92666011 418.2414718 608.26573526 433.34297957 595.0625 444.25 C581.07853056 454.37381121 565.33026896 458.66271373 548.15966797 455.92480469 C547.24072754 455.76399414 546.32178711 455.60318359 545.375 455.4375 C530.28974062 485.42504188 515.22127016 515.42095056 500.17536145 545.42825447 C498.40039509 548.96818114 496.62528942 552.50803793 494.85009766 556.04785156 C494.49668049 556.75258741 494.14326333 557.45732325 493.77913655 558.18341473 C488.05088057 569.60508433 482.31134953 581.02105225 476.56765626 592.4349651 C470.6775183 604.14051738 464.79948107 615.85208634 458.93271172 627.5693686 C455.31009624 634.80360421 451.67804376 642.03293998 448.03390504 649.25635818 C445.24398369 654.78904752 442.47090789 660.33002042 439.70415497 665.87432861 C438.56401506 668.15239869 437.41834458 670.42771003 436.26688766 672.70008087 C434.70120447 675.7919165 433.15532916 678.89286648 431.61422729 681.99700928 C431.14926971 682.90362171 430.68431213 683.81023414 430.20526493 684.74431968 C429.79820634 685.57436523 429.39114776 686.40441078 428.97175407 687.25960922 C428.61253864 687.97500232 428.25332321 688.69039543 427.88322246 689.42746711 C427.16167017 691.48388434 427.16167017 691.48388434 428.1690017 693.58899903 C429.57520763 695.74436942 431.15910633 697.26862226 433.0625 699 C444.72278941 710.4912997 450.3497731 726.06605877 450.6875 742.3125 C450.52819391 760.34948898 443.82170058 776.32697539 431.375 789.4375 C419.10668374 800.99460952 403.70312895 806.12633802 387.04296875 805.71875 C372.07392761 804.5709641 359.05013024 797.88270436 348.375 787.4375 C340.23223778 777.93297891 335.95528941 768.37179804 332.375 756.4375 C228.755 756.1075 125.135 755.7775 18.375 755.4375 C18.045 757.7475 17.715 760.0575 17.375 762.4375 C15.18026188 770.04828541 11.19030198 776.22453622 6.375 782.4375 C5.8284375 783.15035156 5.281875 783.86320313 4.71875 784.59765625 C-4.10309185 795.39609003 -17.70166036 802.89046226 -31.625 804.4375 C-49.94942402 805.59309431 -65.07047012 800.95821298 -79.0859375 788.921875 C-91.66504855 776.61369865 -98.34491154 760.32182446 -98.875 742.875 C-98.67277248 724.876751 -91.8165311 708.53078221 -79.1875 695.8125 C-78.00254568 694.68481897 -76.81548 693.55934608 -75.625 692.4375 C-82.09658958 678.61786415 -88.80660578 664.93018838 -95.63671875 651.28466797 C-96.71046627 649.13581423 -97.78404423 646.98687576 -98.85746765 644.83786011 C-101.74141784 639.06544596 -104.62785308 633.29427796 -107.51488495 627.5234046 C-109.31983637 623.91529137 -111.12393121 620.3067503 -112.92779541 616.69809341 C-113.22880165 616.09592769 -113.5298079 615.49376198 -113.83993554 614.87334881 C-114.45163078 613.64963858 -115.06332423 612.42592745 -115.67501593 611.20221545 C-121.37824963 599.79291246 -127.08391281 588.38482582 -132.79043913 576.97716941 C-137.6869172 567.18869975 -142.58127446 557.39917205 -147.47412109 547.60888672 C-153.17197866 536.20782643 -158.87112627 524.80741257 -164.57235241 513.40803635 C-165.17914685 512.19476601 -165.78593962 510.98149483 -166.39273071 509.76822281 C-166.69122313 509.17139225 -166.98971555 508.57456169 -167.29725319 507.95964535 C-169.40157464 503.75186629 -171.5049669 499.54362351 -173.60800171 495.33520126 C-176.42979059 489.68874738 -179.25351542 484.04326597 -182.07877541 478.39854813 C-183.11754938 476.32232807 -184.15563439 474.24576315 -185.19299889 472.1688385 C-186.60257548 469.3469756 -188.01458082 466.52634178 -189.42724609 463.70602417 C-190.04983826 462.45749375 -190.04983826 462.45749375 -190.68500805 461.1837405 C-192.30700557 457.57522546 -192.30700557 457.57522546 -194.625 454.4375 C-196.62674806 454.76016984 -198.62638919 455.09593603 -200.625 455.4375 C-218.46280077 456.48916172 -233.53586365 452.28215384 -247.3125 440.625 C-260.42136099 428.22472609 -267.33065951 411.79090234 -267.875 393.875 C-267.6257703 377.15584088 -261.5309121 361.42534551 -249.7578125 349.47265625 C-249.05398437 348.80105469 -248.35015625 348.12945312 -247.625 347.4375 C-246.81675781 346.60025391 -246.81675781 346.60025391 -245.9921875 345.74609375 C-234.97678229 335.145842 -219.42553686 331.51179988 -204.625 331.4375 C-200.56190357 331.86909501 -196.60982018 332.53961687 -192.625 333.4375 C-192.39000605 332.64247259 -192.15501209 331.84744518 -191.91289711 331.02832603 C-190.28500482 326.48954884 -188.18438321 322.28718867 -186.01864624 317.98428345 C-185.54732887 317.03993986 -185.0760115 316.09559626 -184.59041178 315.1226362 C-183.01117308 311.96086628 -181.42623526 308.80198843 -179.84130859 305.64306641 C-178.70767941 303.3763722 -177.57440254 301.10950176 -176.44145203 298.84246826 C-174.0020143 293.96313747 -171.56013169 289.08504278 -169.11600876 284.2080574 C-165.58224395 277.15679784 -162.05291144 270.10332731 -158.52464874 263.04931335 C-152.79983556 251.60406172 -147.07145331 240.16060034 -141.34082031 228.71826172 C-135.77481577 217.60461715 -130.21049616 206.49013165 -124.6484375 195.37451172 C-124.30545846 194.68907908 -123.96247941 194.00364643 -123.60910706 193.29744311 C-121.8884526 189.8587443 -120.16783122 186.42002895 -118.44722629 182.98130536 C-104.17827857 154.46413553 -89.90347659 125.9499 -75.625 97.4375 C-76.40818604 96.65898682 -77.19137207 95.88047363 -77.99829102 95.07836914 C-90.98331275 82.02334729 -98.3146323 66.31840651 -98.875 47.875 C-98.6257703 31.15584088 -92.5309121 15.42534551 -80.7578125 3.47265625 C-80.05398437 2.80105469 -79.35015625 2.12945312 -78.625 1.4375 C-78.08617187 0.87933594 -77.54734375 0.32117187 -76.9921875 -0.25390625 C-55.78577705 -20.66108013 -21.60075407 -17.78224989 0 0 Z M18.375 61.4375 C18.375 62.4275 18.375 63.4175 18.375 64.4375 C19.02645996 64.81334229 19.67791992 65.18918457 20.34912109 65.57641602 C21.27289551 66.10936279 22.19666992 66.64230957 23.1484375 67.19140625 C24.18758301 67.79090088 25.22672852 68.39039551 26.29736328 69.00805664 C28.63171642 70.35482423 30.96603235 71.70165607 33.30029297 73.04858398 C39.21478489 76.46127298 45.12988441 79.87289406 51.046875 83.28125 C62.49723425 89.8787228 73.93071651 96.50355826 85.34082031 103.17041016 C96.99159185 109.97337623 108.68403744 116.70392186 120.375 123.4375 C123.66228263 125.33085774 126.94943649 127.2244364 130.23608398 129.11889648 C132.39656289 130.36405244 134.55752621 131.60836832 136.71899414 132.85180664 C142.22134275 136.02167888 147.70622733 139.21762654 153.16796875 142.45703125 C154.26286621 143.10406006 155.35776367 143.75108887 156.48583984 144.41772461 C158.56922887 145.65069565 160.64918351 146.88949465 162.72509766 148.13500977 C163.65757324 148.68600342 164.59004883 149.23699707 165.55078125 149.8046875 C166.36458252 150.29050293 167.17838379 150.77631836 168.0168457 151.27685547 C170.64737536 152.57155865 172.4326704 153.30293047 175.375 153.4375 C177.73389569 152.38872561 179.71183287 151.33471026 181.87890625 149.9765625 C182.50581863 149.59972321 183.13273102 149.22288391 183.77864075 148.83462524 C185.84019592 147.59086154 187.88851676 146.32684817 189.9375 145.0625 C191.37825001 144.18842725 192.81983051 143.31572205 194.26220703 142.44433594 C197.94182084 140.21687023 201.61112408 137.9730376 205.27728271 135.72351074 C210.18739918 132.71335176 215.11074806 129.72483371 220.0319519 126.73284912 C221.75985178 125.68150567 223.48651174 124.62814583 225.21313477 123.57470703 C233.92449318 118.26863819 242.7404779 113.16052356 251.59399414 108.09619141 C260.122255 103.20135254 268.53495366 98.13199565 276.92221069 93.00134277 C283.69474329 88.85954801 290.48819485 84.76105562 297.34375 80.7578125 C298.00251633 80.37311798 298.66128265 79.98842346 299.3400116 79.59207153 C302.51393208 77.74096698 305.69121315 75.89586328 308.87231445 74.05712891 C317.39575839 69.1555108 317.39575839 69.1555108 325.375 63.4375 C325.375 62.7775 325.375 62.1175 325.375 61.4375 C224.065 61.4375 122.755 61.4375 18.375 61.4375 Z M331.9609375 91.48828125 C330.25502441 92.49205811 330.25502441 92.49205811 328.51464844 93.51611328 C327.25969112 94.26061661 326.00481054 95.00524931 324.75 95.75 C323.44843682 96.51839618 322.14667539 97.28645665 320.84472656 98.05419922 C317.3868948 100.09500043 313.93251796 102.14157716 310.47912598 104.18988037 C308.4108694 105.41623161 306.34181478 106.64122401 304.27246094 107.86572266 C289.54404277 116.58170505 274.84237127 125.34105728 260.17602539 134.16113281 C253.65750908 138.07827385 247.11716611 141.95621534 240.5625 145.8125 C227.41673038 153.54940966 214.39848595 161.49715305 201.375 169.4375 C211.54226297 177.64134965 221.00299878 180.2120495 233.66235352 182.54272461 C240.59042088 183.83284934 247.32211718 185.3777915 254.0625 187.4375 C255.17141602 187.77491211 255.17141602 187.77491211 256.30273438 188.11914062 C263.3987324 190.34644328 270.38158108 192.91055545 277.375 195.4375 C277.81142822 194.68992432 278.24785645 193.94234863 278.69750977 193.17211914 C286.90958855 179.11342646 295.15520889 165.07822758 303.5534668 151.12963867 C309.60945187 141.06612203 315.60319744 130.96606984 321.59130859 120.86206055 C325.48808048 114.28832927 329.39378974 107.72007668 333.3203125 101.1640625 C333.88623611 100.21761368 333.88623611 100.21761368 334.46359253 99.25204468 C336.0500976 96.60696301 337.66362744 94.00455884 339.375 91.4375 C339.375 90.4475 339.375 89.4575 339.375 88.4375 C336.35930335 88.4375 334.54672739 89.96057943 331.9609375 91.48828125 Z M8.375 90.4375 C9.87518526 94.54087754 11.88816047 98.20842528 14.12890625 101.94140625 C14.50136475 102.56813736 14.87382324 103.19486847 15.25756836 103.84059143 C16.48054734 105.89593684 17.7088717 107.9480274 18.9375 110 C19.7989269 111.44439127 20.66017118 112.88889147 21.52124023 114.33349609 C27.63047944 124.57116388 33.79949769 134.77210765 40.00341797 144.95263672 C43.76888247 151.13238227 47.51307686 157.3240087 51.2265625 163.53515625 C51.63178635 164.21257874 52.03701019 164.89000122 52.45451355 165.58795166 C54.4103158 168.85841788 56.36347336 172.13042207 58.31274414 175.40478516 C62.16832991 181.86576958 66.10981933 188.23721942 70.375 194.4375 C70.92389893 194.25429199 71.47279785 194.07108398 72.03833008 193.88232422 C73.63686817 193.34908118 75.23559717 192.81641024 76.83447266 192.28417969 C78.40510941 191.76073473 79.97520991 191.23567385 81.54443359 190.70800781 C96.45865954 185.71687595 111.75356836 181.27096146 127.4375 179.625 C134.8616205 178.65279374 140.35408775 174.67480322 146.375 170.4375 C142.96666354 167.5919796 139.54033016 165.25538398 135.67578125 163.07421875 C134.00563965 162.12651611 134.00563965 162.12651611 132.30175781 161.15966797 C131.41937439 160.66294586 131.41937439 160.66294586 130.51916504 160.15618896 C128.00983426 158.74348842 125.50609703 157.32099907 123.00186157 155.89929199 C121.70606981 155.16383654 120.40998562 154.42889607 119.11361694 153.69445801 C112.76630356 150.09792261 106.44262388 146.46092179 100.125 142.8125 C99.05677002 142.19592529 97.98854004 141.57935059 96.88793945 140.9440918 C88.71414199 136.22149463 80.55940292 131.46664208 72.40869141 126.7043457 C62.97106421 121.19352012 53.50609425 115.73067547 44.03515625 110.27734375 C39.98638632 107.94557564 35.94130874 105.60766138 31.90100098 103.26127625 C29.49392119 101.86350576 27.08570437 100.46770061 24.6774292 99.07199097 C22.97086979 98.08186085 21.26593545 97.08893149 19.56103516 96.09594727 C18.01681885 95.20153931 18.01681885 95.20153931 16.44140625 94.2890625 C15.53334229 93.76135254 14.62527832 93.23364258 13.68969727 92.68994141 C11.32758499 91.3253949 11.32758499 91.3253949 8.375 90.4375 Z M-22.6875 106.4375 C-23.79222656 106.80875 -24.89695313 107.18 -26.03515625 107.5625 C-26.88980469 107.85125 -27.74445313 108.14 -28.625 108.4375 C-28.70597179 130.71061477 -28.48844235 152.97730151 -28.22114182 175.24852753 C-28.18715644 178.09123699 -28.15382458 180.9339535 -28.12063599 183.77667236 C-27.77420086 213.33387566 -27.32071987 242.88618348 -26.625 272.4375 C-22.26095212 270.85248282 -20.58947669 269.52062242 -18 265.625 C-1.82303428 242.47209368 18.82664835 224.68871381 42.375 209.4375 C43.365 208.7775 44.355 208.1175 45.375 207.4375 C43.97973828 203.66196023 42.23796848 200.37421411 40.12890625 196.94921875 C39.46632813 195.86705078 38.80375 194.78488281 38.12109375 193.66992188 C37.76644043 193.0942749 37.41178711 192.51862793 37.04638672 191.92553711 C35.11716047 188.79298678 33.20132484 185.65226777 31.28515625 182.51171875 C30.88297882 181.85299774 30.48080139 181.19427673 30.06643677 180.51559448 C25.60430354 173.19472899 21.23899566 165.81712367 16.875 158.4375 C8.73755224 144.68570985 0.48250977 131.00881364 -7.84619141 117.37207031 C-10.09469951 113.6626183 -12.29619864 109.92605029 -14.48510742 106.18115234 C-14.86127197 105.60574707 -15.23743652 105.0303418 -15.625 104.4375 C-17.96419054 104.4375 -20.51207833 105.70472638 -22.6875 106.4375 Z M362.375 105.4375 C356.98809866 114.12196043 351.71329602 122.86598527 346.51074219 131.66186523 C344.42514094 135.18758519 342.33570094 138.71102821 340.24609375 142.234375 C339.82842743 142.93868652 339.41076111 143.64299805 338.98043823 144.36865234 C335.30007835 150.57118719 331.59234765 156.75706496 327.875 162.9375 C318.97782629 177.73284166 310.17843029 192.58626008 301.375 207.4375 C304.20543132 209.73186017 307.0356604 211.95608813 310.0546875 213.99609375 C328.11944031 226.36539544 344.85882153 240.68239633 358.375 258 C361.89478978 262.2897438 365.40834845 265.88705731 370.375 268.4375 C371.035 268.4375 371.695 268.4375 372.375 268.4375 C372.26642794 252.761235 372.15346656 237.08500766 372.03566074 221.40880966 C371.98102361 214.12557981 371.92769757 206.84234523 371.87768555 199.55908203 C371.81968052 191.13831409 371.75820637 182.71757802 371.69140625 174.296875 C371.68599335 173.61453482 371.68058045 172.93219463 371.67500353 172.22917747 C371.5012964 150.62302077 371.16082339 129.0307867 370.375 107.4375 C367.735 106.7775 365.095 106.1175 362.375 105.4375 Z M399.375 106.4375 C397.78725147 108.02524853 398.24770415 109.6442868 398.24560547 111.84814453 C398.24253891 112.81533417 398.23947235 113.7825238 398.23631287 114.77902222 C398.2382515 115.86514801 398.24019012 116.9512738 398.2421875 118.0703125 C398.24046036 119.23305695 398.23873322 120.39580139 398.23695374 121.59378052 C398.22825743 133.2093189 398.27960402 144.82502126 398.33039856 156.44042969 C398.37724906 167.9719208 398.36203807 179.50228579 398.31869888 191.03378105 C398.28309716 201.11829152 398.28279039 211.20250147 398.30305099 221.28705025 C398.31442435 227.62530746 398.30962874 233.96269233 398.26824951 240.30084229 C398.22938421 246.3584798 398.23339133 252.41464255 398.26879692 258.47228622 C398.27445113 260.733708 398.26451997 262.9952276 398.2382679 265.25650406 C398.20444639 268.37748268 398.2261996 271.49340406 398.26147461 274.61425781 C398.23846724 275.52706072 398.21545986 276.43986362 398.19175529 277.38032722 C398.25656447 280.02019857 398.41120023 281.9752575 399.375 284.4375 C402.09541069 287.02569262 405.04978953 288.72995106 408.375 290.4375 C409.38046875 291.03401367 410.3859375 291.63052734 411.421875 292.24511719 C412.31390625 292.73657227 413.2059375 293.22802734 414.125 293.734375 C415.13618896 294.29503662 416.14737793 294.85569824 417.18920898 295.43334961 C418.24052002 296.01221924 419.29183105 296.59108887 420.375 297.1875 C427.5639213 301.17925552 434.74144118 305.17736478 441.8125 309.375 C448.82212814 313.53553111 455.8729964 317.62082561 462.9375 321.6875 C470.65173387 326.12942107 478.35793922 330.58415693 486.04370117 335.07519531 C488.07256877 336.26026876 490.10265034 337.4432667 492.1340332 338.62402344 C496.39337477 341.10059349 500.64157782 343.58757415 504.84375 346.16015625 C505.49504883 346.55211182 506.14634766 346.94406738 506.81738281 347.34790039 C508.47337409 348.34610259 510.12000466 349.35979143 511.765625 350.375 C514.27530246 351.69695586 514.27530246 351.69695586 516.609375 350.875 C518.69709543 349.17526301 519.4574315 347.96393495 520.375 345.4375 C519.91832352 343.33181475 519.91832352 343.33181475 518.76821518 341.23116779 C518.3589066 340.39477215 517.94959802 339.55837651 517.52788615 338.69663554 C517.06040186 337.78292334 516.59291757 336.86921113 516.11126709 335.92781067 C515.62844434 334.95321307 515.14562159 333.97861548 514.64816785 332.97448462 C513.01726649 329.6923897 511.36363585 326.4222839 509.70996094 323.15161133 C508.53974377 320.80852397 507.37091726 318.46474162 506.2033844 316.12031555 C503.353449 310.40411613 500.48652795 304.69659863 497.61390105 298.99177507 C494.27185691 292.35308304 490.94685237 285.70590924 487.6226255 279.05828258 C481.69255655 267.20102189 475.7473435 255.35142005 469.79345703 243.50610352 C464.01106856 232.00194337 458.23878912 220.49278874 452.47802734 208.9777832 C452.12318023 208.26849455 451.76833311 207.5592059 451.40273306 206.82842366 C451.04851263 206.12038111 450.69429221 205.41233855 450.32933784 204.68284017 C449.61619778 203.25736589 448.9030542 201.83189336 448.18990707 200.40642262 C447.8382421 199.70349417 447.48657713 199.00056573 447.12425564 198.27633642 C441.64071613 187.31652269 436.14816305 176.36122524 430.65460043 165.40643296 C428.66097876 161.43066045 426.66866039 157.45423799 424.67726675 153.47734908 C421.2244189 146.58200518 417.76544829 139.68978363 414.2995739 132.80097771 C413.14696851 130.5077702 411.99641175 128.21353176 410.84800148 125.91822052 C409.28643282 122.79806878 407.71757772 119.68169474 406.14666748 116.5662384 C405.45882537 115.18563184 405.45882537 115.18563184 404.75708747 113.77713424 C404.3373479 112.94856184 403.91760833 112.11998944 403.48514938 111.26630878 C403.12333092 110.54586929 402.76151247 109.82542979 402.38872981 109.08315879 C401.46766789 107.26425804 401.46766789 107.26425804 399.375 106.4375 Z M-56.625 121.4375 C-70.94565381 149.89643423 -85.25000025 178.36348904 -99.53154493 206.84206723 C-101.21638364 210.20173861 -102.90136166 213.56134011 -104.58642578 216.92089844 C-104.92189926 217.5897469 -105.25737273 218.25859537 -105.60301207 218.94771197 C-111.04027466 229.78739588 -116.48881112 240.62137524 -121.94151129 251.45330021 C-127.5333271 262.56220515 -133.11303929 273.67712643 -138.68148601 284.79776406 C-142.11984615 291.66348961 -145.56763827 298.52430809 -149.02752231 305.37921289 C-151.67643264 310.62987573 -154.30850967 315.88885633 -156.93425369 321.15114594 C-158.01634169 323.31311242 -159.10395937 325.47232098 -160.19736481 327.62858582 C-161.68423352 330.56278467 -163.15127022 333.50606789 -164.61355591 336.45257568 C-165.0551678 337.31249674 -165.49677969 338.17241779 -165.95177376 339.05839705 C-166.33793197 339.84664186 -166.72409018 340.63488666 -167.12195015 341.44701767 C-167.46293901 342.12595762 -167.80392786 342.80489757 -168.15524971 343.50441146 C-168.83200717 345.49325305 -168.83200717 345.49325305 -167.82050312 347.54628015 C-166.52278319 349.59920135 -165.1252479 351.52809358 -163.625 353.4375 C-160.17662329 352.76865109 -157.56274044 351.41016808 -154.53125 349.65625 C-153.00794067 348.77767334 -153.00794067 348.77767334 -151.45385742 347.88134766 C-150.35533447 347.23987793 -149.25681152 346.5984082 -148.125 345.9375 C-146.96139337 345.26212266 -145.79773678 344.58683139 -144.6340332 343.91162109 C-135.71317343 338.72025125 -126.88360436 333.38289492 -118.07632446 328.00170898 C-108.87813435 322.38187076 -99.62049474 316.8734968 -90.3125 311.4375 C-89.69729492 311.07815369 -89.08208984 310.71880737 -88.44824219 310.34857178 C-87.23788358 309.64165697 -86.02751594 308.93475762 -84.81713867 308.22787476 C-77.04971802 303.69152061 -69.30077034 299.12770113 -61.625 294.4375 C-60.95784218 294.20214444 -60.29068436 293.96678888 -59.60330963 293.72430134 C-56.96938078 292.60326218 -55.49098496 291.63128471 -53.625 289.4375 C-52.45105458 284.13023789 -52.73295361 278.84504526 -52.90039062 273.44799805 C-52.92237701 271.79215152 -52.94081237 270.1362546 -52.95596313 268.48033142 C-53.00713172 263.9878935 -53.10797042 259.49778046 -53.21770668 255.00644279 C-53.32397569 250.31167849 -53.38461027 245.61633127 -53.45007324 240.92085266 C-53.58095806 232.03084352 -53.75291506 223.14212186 -53.93961287 214.25312883 C-54.15017436 204.13277789 -54.31497734 194.01184409 -54.4759264 183.89060152 C-54.80801452 163.0718489 -55.19760278 142.2544997 -55.625 121.4375 C-55.955 121.4375 -56.285 121.4375 -56.625 121.4375 Z M130.375 292.4375 C131.02401939 295.68999847 132.20521143 298.12753244 133.89453125 300.97265625 C134.41700439 301.85614746 134.93947754 302.73963867 135.4777832 303.64990234 C136.04198975 304.59043457 136.60619629 305.5309668 137.1875 306.5 C137.76266357 307.46631348 138.33782715 308.43262695 138.93041992 309.42822266 C144.57813289 318.87011931 150.43302986 328.17859153 156.375 337.4375 C157.21160156 337.28152344 158.04820312 337.12554687 158.91015625 336.96484375 C170.42428358 335.03944704 180.81594599 335.76213774 192.375 337.4375 C198.28960844 327.88132832 204.10204709 318.2672337 209.875 308.625 C210.70565914 307.23889033 211.53638797 305.85282241 212.3671875 304.46679688 C214.37059146 301.12417644 216.37306509 297.78100045 218.375 294.4375 C194.68369199 278.64329466 155.58833759 283.66183303 130.375 292.4375 Z M86.125 321.3125 C74.15847591 333.76232474 65.42325847 348.26584851 59.375 364.375 C59.08415527 365.14336182 58.79331055 365.91172363 58.49365234 366.70336914 C58.22762207 367.44965576 57.9615918 368.19594238 57.6875 368.96484375 C57.45675781 369.61187256 57.22601563 370.25890137 56.98828125 370.92553711 C56.06926002 374.68979247 55.80290212 378.58638091 55.375 382.4375 C75.505 382.4375 95.635 382.4375 116.375 382.4375 C118.355 377.4875 120.335 372.5375 122.375 367.4375 C128.3652535 357.28452797 128.3652535 357.28452797 131.14453125 354.953125 C132.63830167 353.47403435 132.63830167 353.47403435 132.1706543 351.2253418 C131.20792211 347.85208656 129.71162755 345.30661993 127.875 342.31640625 C127.34694763 341.45029976 127.34694763 341.45029976 126.80822754 340.56669617 C125.67124742 338.7064544 124.52356836 336.85310502 123.375 335 C122.59525823 333.73106755 121.81596158 332.46186146 121.03710938 331.19238281 C113.46730889 318.64407669 113.46730889 318.64407669 105.375 306.4375 C99.98528581 306.4375 89.73923489 317.80640757 86.125 321.3125 Z M242.375 307.4375 C236.89345235 314.61416486 232.51343186 322.75448896 227.91455078 330.51367188 C226.61801695 332.6992715 225.31507092 334.88096116 224.01171875 337.0625 C223.17929853 338.4633106 222.34725377 339.86434439 221.515625 341.265625 C220.93593964 342.23450653 220.93593964 342.23450653 220.34454346 343.22296143 C218.38319042 346.54501203 216.68668819 349.80659501 215.375 353.4375 C215.81070312 353.87578125 216.24640625 354.3140625 216.6953125 354.765625 C224.34057176 362.90732967 227.86569509 371.90958528 231.375 382.4375 C251.175 382.4375 270.975 382.4375 291.375 382.4375 C288.41106028 368.81163486 288.41106028 368.81163486 283.625 356.125 C283.28138428 355.37919678 282.93776855 354.63339355 282.58374023 353.86499023 C274.01825947 335.78014118 259.89852541 318.80448103 243.375 307.4375 C243.045 307.4375 242.715 307.4375 242.375 307.4375 Z M400.375 317.4375 C399.60148195 329.45567852 400.75790427 340.03845901 403.97705078 351.66381836 C406.78273225 362.00922855 407.80733296 371.46383071 409.375 382.4375 C439.405 382.4375 469.435 382.4375 500.375 382.4375 C501.035 380.1275 501.695 377.8175 502.375 375.4375 C501.6629541 375.03136475 500.9509082 374.62522949 500.21728516 374.20678711 C478.80557987 361.99084938 457.42363313 349.7249027 436.125 337.3125 C435.15320801 336.7462793 434.18141602 336.18005859 433.18017578 335.59667969 C428.12421793 332.64504782 423.08182071 329.67236288 418.0546875 326.671875 C417.03793945 326.06617676 416.02119141 325.46047852 414.97363281 324.83642578 C413.03053073 323.67726489 411.08967017 322.51433601 409.15136719 321.34716797 C408.28930664 320.83299316 407.42724609 320.31881836 406.5390625 319.7890625 C405.78061035 319.33354004 405.0221582 318.87801758 404.24072266 318.40869141 C402.42988739 317.28358907 402.42988739 317.28358907 400.375 317.4375 Z M-60.59765625 324.92578125 C-61.21933685 325.29573715 -61.84101746 325.66569305 -62.48153687 326.04685974 C-64.55140212 327.27921969 -66.61943347 328.51462431 -68.6875 329.75 C-70.13601587 330.61317932 -71.58466689 331.4761319 -73.03344727 332.33886719 C-76.0543754 334.1379944 -79.07471082 335.93811125 -82.09472656 337.73876953 C-86.39047893 340.29904161 -90.69047854 342.85209525 -94.9921875 345.40234375 C-95.664776 345.80112732 -96.3373645 346.19991089 -97.03033447 346.61077881 C-98.37455183 347.40777686 -99.71876976 348.20477394 -101.06298828 349.00177002 C-112.64724055 355.87134477 -124.21332547 362.77009187 -135.74975586 369.71972656 C-140.67665278 372.6847344 -145.61739973 375.6107409 -150.625 378.4375 C-150.295 379.7575 -149.965 381.0775 -149.625 382.4375 C-121.245 382.4375 -92.865 382.4375 -63.625 382.4375 C-60.655 367.0925 -60.655 367.0925 -57.625 351.4375 C-56.305 346.8175 -54.985 342.1975 -53.625 337.4375 C-53.37342893 334.30292447 -53.21548496 331.63623214 -53.375 328.5625 C-53.39304687 327.86253906 -53.41109375 327.16257812 -53.4296875 326.44140625 C-53.47540292 324.77279353 -53.54704282 323.10491746 -53.625 321.4375 C-55.92091182 321.4375 -58.75801162 323.82843788 -60.59765625 324.92578125 Z M-142.625 410.4375 C-138.91184882 413.40802094 -135.62606736 415.73426102 -131.56640625 418.08984375 C-130.98985794 418.42601715 -130.41330963 418.76219055 -129.81929016 419.10855103 C-127.94410475 420.20098426 -126.06579 421.28791504 -124.1875 422.375 C-122.87163328 423.14072353 -121.55604377 423.90692361 -120.24072266 424.67358398 C-117.5992365 426.21307324 -114.95689539 427.75107786 -112.31396484 429.28808594 C-107.36290778 432.16995665 -102.42962993 435.08165908 -97.5 438 C-96.64978271 438.50289551 -95.79956543 439.00579102 -94.92358398 439.52392578 C-92.15689472 441.16095002 -89.39086129 442.79907724 -86.625 444.4375 C-86.05386475 444.77579834 -85.48272949 445.11409668 -84.89428711 445.46264648 C-76.47015804 450.45252136 -68.04714396 455.44427523 -59.625 460.4375 C-58.54114353 457.18593059 -58.70763978 455.99257138 -59.33203125 452.703125 C-59.50669922 451.73375 -59.68136719 450.764375 -59.86132812 449.765625 C-60.23091776 447.79113933 -60.60308486 445.81713336 -60.97851562 443.84375 C-62.98506854 432.65920954 -63.62329122 421.95715093 -64.625 410.4375 C-90.365 410.4375 -116.105 410.4375 -142.625 410.4375 Z M52.375 410.4375 C56.41889469 444.81060486 69.08064722 474.24360708 96.375 496.4375 C99.48010513 493.55518648 101.6093386 490.67511932 103.73828125 487.01953125 C104.37121094 485.94098877 105.00414062 484.86244629 105.65625 483.7512207 C106.3333611 482.58416324 107.0104438 481.41708931 107.6875 480.25 C108.7465136 478.44026384 109.80772914 476.63183023 110.86898804 474.82341003 C111.59823524 473.5803476 112.32676391 472.33686337 113.05459595 471.0929718 C116.94453709 464.44843968 120.90637362 457.84773936 124.875 451.25 C125.52766846 450.16372314 126.18033691 449.07744629 126.8527832 447.95825195 C128.35947591 445.4509048 129.86685396 442.94397315 131.375 440.4375 C130.78078247 439.67348877 130.78078247 439.67348877 130.17456055 438.89404297 C127.13411916 434.92453918 124.41195338 431.06125446 122.1875 426.5625 C121.71957031 425.63695312 121.25164062 424.71140625 120.76953125 423.7578125 C118.9590261 419.44708596 117.71849479 414.91581597 116.375 410.4375 C95.255 410.4375 74.135 410.4375 52.375 410.4375 Z M231.375 410.4375 C229.725 415.3875 228.075 420.3375 226.375 425.4375 C224.1064263 429.28254017 221.94379484 432.83989313 219.375 436.4375 C218.715 437.4275 218.055 438.4175 217.375 439.4375 C228.23271702 457.85869694 239.23892964 476.18325013 250.375 494.4375 C268.40147462 485.9537532 280.40333084 461.63539826 286.90844727 443.86865234 C290.5826302 433.2870976 293.375 421.69215236 293.375 410.4375 C272.915 410.4375 252.455 410.4375 231.375 410.4375 Z M410.375 410.4375 C409.385 420.6675 408.395 430.8975 407.375 441.4375 C404.31944444 456.71527778 404.31944444 456.71527778 402.67285156 463.38574219 C402.19001228 465.63126714 402.19001228 465.63126714 403.375 468.4375 C418.18579509 460.01953766 432.96049378 451.55311705 447.609375 442.85546875 C453.78420218 439.18957364 459.97610344 435.55305668 466.17108154 431.9213562 C467.4248366 431.18633426 468.6784596 430.45108703 469.9319458 429.71560669 C476.08995513 426.10257906 482.25275292 422.49896206 488.4453125 418.9453125 C489.34161377 418.43049316 490.23791504 417.91567383 491.16137695 417.38525391 C492.80377173 416.44397614 494.44804526 415.50596636 496.09448242 414.57177734 C497.87060286 413.55436636 499.62579901 412.50052626 501.375 411.4375 C501.375 411.1075 501.375 410.7775 501.375 410.4375 C471.345 410.4375 441.315 410.4375 410.375 410.4375 Z M-164.265625 433.79296875 C-165.06226563 434.69982422 -165.06226563 434.69982422 -165.875 435.625 C-166.41640625 436.21667969 -166.9578125 436.80835938 -167.515625 437.41796875 C-169.02433489 440.16445823 -168.40712578 441.44961758 -167.625 444.4375 C-166.76923981 446.58718996 -166.76923981 446.58718996 -165.67471981 448.70720387 C-165.26517148 449.53227367 -164.85562315 450.35734348 -164.43366426 451.2074154 C-163.98133615 452.1033331 -163.52900804 452.99925079 -163.06297302 453.9223175 C-162.34502795 455.36205257 -162.34502795 455.36205257 -161.61257893 456.83087319 C-160.00449239 460.05199455 -158.38785521 463.26874718 -156.77124023 466.4855957 C-155.61788262 468.79146489 -154.46505314 471.0975983 -153.31271362 473.40397644 C-150.82951164 478.37195302 -148.34192683 483.33771454 -145.85134697 488.30199623 C-142.25039937 495.47950458 -138.65608784 502.66031953 -135.06338442 509.84195735 C-129.23420461 521.49375202 -123.39967085 533.14285711 -117.56176758 544.7902832 C-111.89098646 556.10430607 -106.22272879 567.41958723 -100.55786133 578.73657227 C-100.20864557 579.43421561 -99.85942981 580.13185896 -99.49963176 580.85064302 C-97.74772477 584.35054186 -95.99586738 587.85046552 -94.24403465 591.35040152 C-79.71204327 620.38328694 -65.17136218 649.41181206 -50.625 678.4375 C-50.295 678.4375 -49.965 678.4375 -49.625 678.4375 C-49.49665287 656.93639469 -49.593971 635.4375994 -49.8125 613.9375 C-49.82625703 612.57575433 -49.82625703 612.57575433 -49.84029198 611.18649864 C-49.94707331 600.75977833 -50.07336402 590.33356795 -50.22973633 579.9074707 C-50.28525611 576.14274929 -50.34005169 572.37801784 -50.39453125 568.61328125 C-50.40808969 567.69290888 -50.42164814 566.77253651 -50.43561745 565.82427406 C-50.58498893 555.41856807 -50.64905173 545.02609079 -50.45588684 534.62080383 C-50.36946864 529.83832928 -50.33085535 525.05607395 -50.29666138 520.27297974 C-50.26596067 518.16065436 -50.20879434 516.04851991 -50.12301636 513.93771362 C-49.3006203 503.80684669 -49.3006203 503.80684669 -53.00079346 494.80749512 C-56.54737789 491.85919874 -60.51060047 489.99791603 -64.74761963 488.24188232 C-67.27525322 487.15889253 -69.55337 485.767641 -71.8828125 484.3125 C-73.50483338 483.35353218 -75.12723725 482.39521189 -76.75 481.4375 C-77.65903076 480.90044434 -78.56806152 480.36338867 -79.50463867 479.81005859 C-84.86513498 476.64617853 -90.23237743 473.49399934 -95.60546875 470.3515625 C-98.04953602 468.92197216 -100.49356938 467.49232393 -102.9375 466.0625 C-103.54922058 465.70461395 -104.16094116 465.34672791 -104.79119873 464.97799683 C-113.51736582 459.87033626 -122.21024785 454.71137511 -130.875 449.5 C-131.8952124 448.88713135 -132.9154248 448.2742627 -133.96655273 447.64282227 C-141.66965289 443.01468161 -141.66965289 443.01468161 -145.30175781 440.8203125 C-147.69761345 439.37417367 -150.09810345 437.93607526 -152.5 436.5 C-153.1899707 436.08049072 -153.87994141 435.66098145 -154.59082031 435.22875977 C-159.37470965 432.04575054 -159.37470965 432.04575054 -164.265625 433.79296875 Z M508.44140625 438.15625 C507.41402344 438.75050781 506.38664063 439.34476562 505.328125 439.95703125 C504.20921875 440.61058594 503.0903125 441.26414062 501.9375 441.9375 C500.76446469 442.61873377 499.59128518 443.29971928 498.41796875 443.98046875 C489.07589909 449.40957751 479.78385934 454.92268118 470.49755859 460.4465332 C462.72023318 465.06680984 454.90511412 469.61653133 447.0625 474.125 C438.83184455 478.85838743 430.61666774 483.61558466 422.4375 488.4375 C421.58051514 488.94112061 420.72353027 489.44474121 419.84057617 489.96362305 C418.2382139 490.91097992 416.64559596 491.87512511 415.06590271 492.8598175 C412.375 494.4375 412.375 494.4375 409.50827026 495.71569824 C406.25761136 497.32859056 403.9083235 498.82564046 401.375 501.4375 C400.1037088 505.86948064 400.24779928 510.07359039 400.52001762 514.62446594 C400.66550452 517.05821756 400.74421021 519.48699782 400.80836487 521.92419434 C400.91056463 525.65789105 401.03900413 529.3896293 401.17950439 533.12207031 C401.54926413 543.86716868 401.50232487 554.62072755 401.54114914 565.37097168 C401.57055498 572.06776231 401.62663307 578.76431989 401.68164062 585.4609375 C401.70368867 588.19368365 401.72551944 590.92643151 401.74731445 593.65917969 C401.75276453 594.33910225 401.7582146 595.01902481 401.76382983 595.71955109 C401.80820484 601.29415912 401.84800535 606.86879393 401.88699192 612.44344187 C401.93010252 618.56988655 401.97814827 624.69628378 402.02794075 630.82267761 C402.04814005 633.39005932 402.06688634 635.95745293 402.08407402 638.52485657 C402.17073911 657.0047244 402.17073911 657.0047244 403.375 675.4375 C405.39251616 672.8553783 407.05938688 670.32197421 408.53011036 667.39572144 C409.13658082 666.19615405 409.13658082 666.19615405 409.7553032 664.97235298 C410.40959394 663.66321843 410.40959394 663.66321843 411.07710266 662.32763672 C411.54660204 661.39599134 412.01610141 660.46434597 412.49982804 659.50446892 C414.07444438 656.37729047 415.64330987 653.24726315 417.2121582 650.1171875 C418.3386865 647.87666102 419.46551989 645.63628791 420.59263611 643.39605713 C423.97352807 636.67269681 427.34753718 629.94589974 430.72019055 623.21840382 C432.30839139 620.05077352 433.89737577 616.88353633 435.48625755 613.71624756 C440.7662001 603.19036768 446.04413812 592.66348635 451.31628132 582.13369751 C452.6832513 579.40357728 454.05022967 576.67346124 455.41723633 573.94335938 C455.75699453 573.26481045 456.09675273 572.58626153 456.44680663 571.88715053 C461.95941665 560.8785556 467.48563145 549.87684962 473.01752863 538.87793612 C478.69544457 527.58815869 484.36136162 516.2924259 490.01543111 504.99068642 C493.19092782 498.64402954 496.37167587 492.30012485 499.56582069 485.96282959 C502.56721357 480.00785194 505.55230101 474.04498939 508.52633095 468.07628632 C509.62293982 465.88207225 510.72507318 463.69060961 511.83298874 461.50208282 C513.3394173 458.52430694 514.8260068 455.53744774 516.30781555 452.54736328 C516.75516298 451.67460691 517.20251041 450.80185055 517.66341382 449.90264702 C518.05468872 449.10293543 518.44596363 448.30322384 518.84909534 447.47927856 C519.36725259 446.4458945 519.36725259 446.4458945 519.89587766 445.39163399 C520.58498221 443.38435064 520.58498221 443.38435064 519.56411904 441.32551384 C518.25842258 439.25240517 516.9711801 437.29971012 515.375 435.4375 C512.51186311 435.4375 510.91492965 436.72008149 508.44140625 438.15625 Z M153.375 455.4375 C152.72821289 456.54315308 152.72821289 456.54315308 152.06835938 457.67114258 C141.56114119 475.62744588 131.00049784 493.55092075 120.375 511.4375 C137.44915048 525.01010651 167.42133845 525.05792947 187.890625 523.21044922 C201.51563854 521.56814848 215.03785446 517.3857666 227.375 511.4375 C226.79212607 507.17477791 225.30197954 504.27805703 223.05078125 500.6328125 C222.71237213 500.08001617 222.37396301 499.52721985 222.02529907 498.95767212 C220.91957954 497.15494569 219.80362265 495.35880036 218.6875 493.5625 C217.92121292 492.31718894 217.15567633 491.07141579 216.39086914 489.82519531 C214.82745668 487.27946175 213.26037485 484.73604565 211.69042969 482.19433594 C208.20263684 476.54273548 204.75994199 470.86377855 201.3125 465.1875 C200.15523213 463.2862853 198.99770934 461.38522574 197.83984375 459.484375 C197.361521 458.69901367 196.88319824 457.91365234 196.39038086 457.10449219 C196.05530518 456.55438477 195.72022949 456.00427734 195.375 455.4375 C194.53839844 455.6540625 193.70179688 455.870625 192.83984375 456.09375 C178.82061275 459.44718732 167.28333289 458.90110488 153.375 455.4375 Z M373.375 530.4375 C371.84067971 532.52283611 370.35084887 534.62379098 368.875 536.75 C352.87538214 559.43307507 333.65037121 577.9933778 311.375 594.4375 C314.8033635 601.67740897 318.72798767 608.51304184 322.93103027 615.32858276 C324.81473138 618.38403114 326.68448833 621.44799363 328.5546875 624.51171875 C328.94676392 625.15353592 329.33884033 625.79535309 329.74279785 626.45661926 C333.86092101 633.21069895 337.8894996 640.01708609 341.91427612 646.82705688 C347.85853006 656.88178047 353.82367299 666.92215698 359.9375 676.875 C360.46762695 677.74503662 360.99775391 678.61507324 361.54394531 679.51147461 C362.02573242 680.29014893 362.50751953 681.06882324 363.00390625 681.87109375 C363.41713135 682.54197021 363.83035645 683.21284668 364.25610352 683.90405273 C365.31169278 685.59706786 365.31169278 685.59706786 367.375 686.4375 C369.38395582 685.89694535 369.38395582 685.89694535 371.5 685 C372.22445312 684.71253906 372.94890625 684.42507813 373.6953125 684.12890625 C374.24960937 683.90074219 374.80390625 683.67257812 375.375 683.4375 C375.55144242 648.18430533 375.23747045 612.93856724 374.875 577.6875 C374.86304218 576.52427341 374.85108437 575.36104683 374.83876419 574.16257095 C374.68852986 559.58750024 374.53379832 545.01247983 374.375 530.4375 C374.045 530.4375 373.715 530.4375 373.375 530.4375 Z M-23.625 537.4375 C-23.69666626 560.66476975 -23.52527661 583.88597744 -23.25268555 607.11157227 C-23.20858142 610.87945342 -23.16697799 614.64734882 -23.12768555 618.4152832 C-22.90466299 639.77046732 -22.60671012 661.10107622 -21.625 682.4375 C-19.315 683.4275 -17.005 684.4175 -14.625 685.4375 C-14.14893311 684.63570312 -13.67286621 683.83390625 -13.18237305 683.0078125 C-12.86258987 682.46923111 -12.5428067 681.93064972 -12.21333313 681.37574768 C-11.48049138 680.14148624 -10.74765254 678.90722307 -10.01481628 677.67295837 C-7.92221671 674.14855027 -5.82956229 670.62417475 -3.73681641 667.09985352 C0.26935831 660.35307339 4.27527768 653.60614286 8.27915955 646.85800171 C9.95182517 644.03893482 11.62475426 641.22002432 13.29769897 638.40112305 C14.08479635 637.07470303 14.8717682 635.74820852 15.65859985 634.42163086 C18.22703586 630.09138199 20.79893982 625.76321773 23.375 621.4375 C23.77357208 620.76788239 24.17214417 620.09826477 24.58279419 619.40835571 C25.79698249 617.37017348 27.01339022 615.33333242 28.23046875 613.296875 C28.59878815 612.67832138 28.96710754 612.05976776 29.34658813 611.42247009 C31.32162519 608.12370292 33.39605983 604.92496173 35.5625 601.75 C37.70209626 598.74788393 37.70209626 598.74788393 36.84375 596.4765625 C34.85368824 593.713764 32.5537343 592.33678729 29.6875 590.5 C9.51024017 577.0911515 -6.66088533 559.09680251 -20.875 539.67578125 C-21.4525 538.93714844 -22.03 538.19851563 -22.625 537.4375 C-22.955 537.4375 -23.285 537.4375 -23.625 537.4375 Z M280.3125 611.4375 C263.55110613 619.44473297 245.41882094 624.28582439 227.375 628.4375 C229.70740436 630.99684356 232.14834642 632.61498484 235.14453125 634.3359375 C236.10383545 634.89063721 237.06313965 635.44533691 238.05151367 636.0168457 C239.08638916 636.60941162 240.12126465 637.20197754 241.1875 637.8125 C243.38835166 639.08406298 245.58886581 640.3562103 247.7890625 641.62890625 C248.89926758 642.26973145 250.00947266 642.91055664 251.15332031 643.57080078 C255.80742379 646.26747214 260.43617222 649.00603745 265.0625 651.75 C271.13948206 655.3500237 277.22297411 658.93845521 283.3203125 662.50390625 C283.92081924 662.85509018 284.52132599 663.20627411 285.14002991 663.56809998 C285.74648849 663.92275833 286.35294708 664.27741669 286.9777832 664.64282227 C300.69869898 672.66704428 314.36096784 680.78131073 327.97265625 688.98974609 C328.76542969 689.46750488 329.55820312 689.94526367 330.375 690.4375 C331.26058594 690.9938916 332.14617187 691.5502832 333.05859375 692.12353516 C335.22108134 693.60196396 335.22108134 693.60196396 337.375 693.4375 C335.94094155 689.57609778 334.14353075 686.13964215 332.05859375 682.58984375 C331.73043671 682.0295195 331.40227966 681.46919525 331.06417847 680.89189148 C329.98407486 679.05067035 328.89855706 677.21271484 327.8125 675.375 C327.04902185 674.07799192 326.28559495 672.78095366 325.5222168 671.48388672 C318.27291998 659.18826362 310.86931428 646.98779703 303.42822266 634.80761719 C301.35266984 631.40084774 299.28988381 627.98685812 297.23046875 624.5703125 C296.57973389 623.49313965 295.92899902 622.4159668 295.25854492 621.30615234 C294.02819242 619.26901392 292.80037689 617.23034051 291.57543945 615.18994141 C291.03491943 614.29710449 290.49439941 613.40426758 289.9375 612.484375 C289.46441406 611.69901367 288.99132812 610.91365234 288.50390625 610.10449219 C288.13136719 609.55438477 287.75882813 609.00427734 287.375 608.4375 C285.09836771 608.4375 282.2420622 610.48019782 280.3125 611.4375 Z M61.375 610.4375 C59.93453586 612.57744246 58.62728788 614.7050329 57.34375 616.9375 C56.7495929 617.94985718 56.7495929 617.94985718 56.14343262 618.98266602 C55.30425057 620.41275042 54.46793992 621.84452305 53.63427734 623.27783203 C52.04943556 625.99584491 50.44117673 628.69949999 48.83105469 631.40258789 C47.64148381 633.39979137 46.45503048 635.39881481 45.26953125 637.3984375 C44.67712646 638.39762207 44.67712646 638.39762207 44.07275391 639.41699219 C43.67749512 640.08375977 43.28223633 640.75052734 42.875 641.4375 C37.09551893 651.18698743 31.29525178 660.92333077 25.456604 670.63751221 C23.70782967 673.54779402 21.96145792 676.45951499 20.21484375 679.37109375 C16.6015625 685.39322917 12.98828125 691.41536458 9.375 697.4375 C10.035 697.7675 10.695 698.0975 11.375 698.4375 C13.95767508 697.22927179 13.95767508 697.22927179 16.89453125 695.4140625 C17.73687569 694.9156636 17.73687569 694.9156636 18.59623718 694.40719604 C20.46445112 693.29961923 22.32579825 692.1809825 24.1875 691.0625 C25.49949577 690.28235452 26.81200387 689.50307005 28.125 688.72460938 C30.85698808 687.10393216 33.58671538 685.47954069 36.31494141 683.85253906 C41.88887641 680.5321858 47.48903847 677.25688012 53.08969116 673.98187256 C56.10275344 672.21928701 59.11376349 670.45320224 62.125 668.6875 C63.33332369 667.97915022 64.54165702 667.27081688 65.75 666.5625 C66.348125 666.211875 66.94625 665.86125 67.5625 665.5 C69.375 664.4375 71.1875 663.375 73 662.3125 C73.59797897 661.96195557 74.19595795 661.61141113 74.8120575 661.25024414 C76.0218481 660.54106673 77.23165648 659.83191965 78.44148254 659.12280273 C81.44016534 657.36513061 84.43854929 655.60695294 87.4362793 653.84765625 C93.13776211 650.50233654 98.84245596 647.16280502 104.55679321 643.83947754 C107.27869514 642.25609462 109.99902951 640.67002975 112.71923828 639.08374023 C114.02590693 638.32278646 115.33335612 637.56317135 116.64160156 636.80493164 C118.44660597 635.75867008 120.24895642 634.70797492 122.05078125 633.65625 C123.08114502 633.05748047 124.11150879 632.45871094 125.1730957 631.84179688 C125.89972412 631.37837891 126.62635254 630.91496094 127.375 630.4375 C127.375 630.1075 127.375 629.7775 127.375 629.4375 C126.73812256 629.32269287 126.10124512 629.20788574 125.44506836 629.08959961 C104.97595619 625.34281676 85.16218143 620.59685646 66.26171875 611.72265625 C63.597126 610.30192937 63.597126 610.30192937 61.375 610.4375 Z M170.55859375 635.90234375 C169.64505127 636.44608643 168.73150879 636.9898291 167.7902832 637.55004883 C166.31628052 638.45339966 166.31628052 638.45339966 164.8125 639.375 C162.64862898 640.66959094 160.48455782 641.9638474 158.3203125 643.2578125 C157.17335402 643.94929788 156.02654609 644.64103302 154.87988281 645.33300781 C149.6165398 648.50217862 144.30652458 651.59172827 139.00125122 654.68997192 C135.93225286 656.48361616 132.86665615 658.28305513 129.80078125 660.08203125 C128.56072462 660.80943309 127.320653 661.5368094 126.08056641 662.26416016 C125.46763733 662.6236676 124.85470825 662.98317505 124.22320557 663.35357666 C119.37677369 666.19587987 114.52955605 669.03684304 109.6824646 671.87802124 C106.66326922 673.64777838 103.64413789 675.41764478 100.625 677.1875 C99.41666697 677.89583386 98.20833364 678.60416719 97 679.3125 C96.401875 679.663125 95.80375 680.01375 95.1875 680.375 C92.46875 681.96875 92.46875 681.96875 89.75 683.5625 C89.15193542 683.91308975 88.55387085 684.2636795 87.93768311 684.62489319 C86.72874003 685.3335836 85.51979635 686.04227298 84.31085205 686.7509613 C81.29934272 688.51632273 78.28784386 690.28170201 75.27636719 692.04711914 C70.36992286 694.92340095 65.46346926 697.79966679 60.55664062 700.67529297 C59.92083572 701.04790756 59.28503082 701.42052216 58.62995911 701.8044281 C57.34913551 702.55501789 56.06828241 703.30555733 54.78739929 704.05604553 C51.68071002 705.87644578 48.57462339 707.69785676 45.4699707 709.52172852 C40.25066719 712.58698124 35.02778484 715.64453202 29.77734375 718.65625 C28.96620117 719.12426025 28.15505859 719.59227051 27.31933594 720.07446289 C25.86390442 720.91317813 24.40513898 721.74614706 22.94238281 722.57202148 C21.38651916 723.47174661 19.87408895 724.44606201 18.375 725.4375 C18.375 726.0975 18.375 726.7575 18.375 727.4375 C122.325 727.4375 226.275 727.4375 333.375 727.4375 C333.375 726.1175 333.375 724.7975 333.375 723.4375 C331.99404043 722.04786294 331.99404043 722.04786294 330.01953125 721.01953125 C328.89115845 720.35872559 328.89115845 720.35872559 327.73999023 719.68457031 C326.89766846 719.21116211 326.05534668 718.73775391 325.1875 718.25 C323.86117554 717.47994629 323.86117554 717.47994629 322.50805664 716.69433594 C320.53967493 715.55226114 318.56769176 714.41637837 316.59277344 713.28564453 C313.2300696 711.35425849 309.88218133 709.39858772 306.5390625 707.43359375 C305.95342026 707.08943924 305.36777802 706.74528473 304.76438904 706.39070129 C303.55972788 705.68274202 302.35509254 704.97473881 301.15048218 704.26669312 C298.66605346 702.80793122 296.17909749 701.35350558 293.69224548 699.89888 C284.9556654 694.78766183 276.24828108 689.62821805 267.54516602 684.46020508 C259.90991058 679.93002401 252.25575403 675.43346317 244.59182739 670.95202637 C234.84122944 665.25026998 225.11767603 659.50844705 215.4375 653.6875 C214.4276001 653.08212402 213.4177002 652.47674805 212.37719727 651.85302734 C207.28295188 648.79755163 202.20298889 645.72131876 197.140625 642.61328125 C195.15637203 641.40865313 193.17200195 640.2042179 191.1875 639 C190.28459229 638.43764648 189.38168457 637.87529297 188.45141602 637.29589844 C187.60764404 636.78704102 186.76387207 636.27818359 185.89453125 635.75390625 C185.16339111 635.30474854 184.43225098 634.85559082 183.67895508 634.39282227 C178.74140121 632.34549279 174.99422935 633.21488905 170.55859375 635.90234375 Z " fill="#72ABCD" transform="translate(271.625,49.5625)"/>
<path d="M0 0 C1.42675049 0.24943359 1.42675049 0.24943359 2.88232422 0.50390625 C19.78505456 3.54995143 37.7742017 7.85248715 53 16 C54.17433594 16.58136719 55.34867188 17.16273438 56.55859375 17.76171875 C60.00917928 19.47100365 63.44932646 21.20039753 66.88623047 22.93701172 C68.23662255 23.61610702 69.58958443 24.29013176 70.94580078 24.95751953 C99.40258378 38.97421217 125.74458476 63.28638534 142.91796875 89.80859375 C144.34813008 92.00079226 145.79371486 94.14842084 147.30078125 96.28515625 C159.31554084 113.46711114 168.20043157 132.21124996 175 152 C175.24830566 152.70672852 175.49661133 153.41345703 175.75244141 154.14160156 C190.71377656 197.08675071 192.60202425 255.29984407 174.96166992 297.67553711 C173.64961215 300.84692631 172.52672036 304.07991066 171.375 307.3125 C166.46126351 320.65955686 160.48914078 333.94341015 152.5 345.7421875 C151.06696277 347.89920709 149.87423535 350.07570026 148.6875 352.375 C137.3134211 373.16592993 117.64634672 392.76047082 99 407 C97.64455078 408.04607422 97.64455078 408.04607422 96.26171875 409.11328125 C91.08891101 412.99837447 85.86006198 416.31665328 80.12890625 419.30859375 C77.01686528 420.99088306 74.00678419 422.79096519 70.98388672 424.6262207 C44.05239136 440.88988852 14.09305451 448.78817964 -17 452 C-18.09376953 452.11649902 -19.18753906 452.23299805 -20.31445312 452.35302734 C-75.60885716 457.95036208 -130.56837802 449.87027003 -179 422 C-180.45161098 421.18321697 -181.90341163 420.36677087 -183.35546875 419.55078125 C-197.39713653 411.53151916 -209.37028968 401.15551214 -221 390 C-222.23556641 388.82630859 -222.23556641 388.82630859 -223.49609375 387.62890625 C-229.1529839 382.12887961 -234.1317248 376.20216562 -239 370 C-239.70769531 369.12085938 -240.41539062 368.24171875 -241.14453125 367.3359375 C-248.34380234 358.12605917 -254.17872666 348.11650164 -260 338 C-260.39106934 337.32533691 -260.78213867 336.65067383 -261.18505859 335.95556641 C-275.49866839 311.04793793 -284.60059508 282.44765172 -288 254 C-288.10675049 253.13109131 -288.21350098 252.26218262 -288.32348633 251.36694336 C-289.36110813 241.33010119 -289.04387038 231.2587066 -288.8125 221.1875 C-288.79110962 220.23046173 -288.76971924 219.27342346 -288.74768066 218.28738403 C-288.39765774 203.89592927 -287.4862762 190.01871705 -284 176 C-283.81953125 175.23155762 -283.6390625 174.46311523 -283.453125 173.67138672 C-277.25080087 147.58286083 -266.15782614 119.01046798 -250.30078125 97.20703125 C-247.88314015 94.06230617 -247.88314015 94.06230617 -246.375 90.375 C-243.48927427 84.32086519 -238.68245535 79.45064524 -234.28076172 74.45996094 C-233.25592903 73.29173763 -232.25140736 72.10570812 -231.25390625 70.9140625 C-221.17097642 58.91930441 -209.70711009 48.1505195 -197 39 C-196.40219727 38.56848633 -195.80439453 38.13697266 -195.18847656 37.69238281 C-186.61358698 31.57918402 -177.75347869 26.56358006 -168.23974609 22.07128906 C-165.80714 20.90775347 -163.3980203 19.70233248 -160.98828125 18.4921875 C-149.58886123 12.82373926 -138.30391381 8.2774403 -126 5 C-125.16984375 4.77473633 -124.3396875 4.54947266 -123.484375 4.31738281 C-84.75528016 -5.96636548 -39.40042259 -7.15986932 0 0 Z M-94 113 C-93.35098061 116.25249847 -92.16978857 118.69003244 -90.48046875 121.53515625 C-89.95799561 122.41864746 -89.43552246 123.30213867 -88.8972168 124.21240234 C-88.33301025 125.15293457 -87.76880371 126.0934668 -87.1875 127.0625 C-86.61233643 128.02881348 -86.03717285 128.99512695 -85.44458008 129.99072266 C-79.79686711 139.43261931 -73.94197014 148.74109153 -68 158 C-67.16339844 157.84402344 -66.32679688 157.68804687 -65.46484375 157.52734375 C-53.95071642 155.60194704 -43.55905401 156.32463774 -32 158 C-26.08539156 148.44382832 -20.27295291 138.8297337 -14.5 129.1875 C-13.66934086 127.80139033 -12.83861203 126.41532241 -12.0078125 125.02929688 C-10.00440854 121.68667644 -8.00193491 118.34350045 -6 115 C-29.69130801 99.20579466 -68.78666241 104.22433303 -94 113 Z M-138.25 141.875 C-150.21652409 154.32482474 -158.95174153 168.82834851 -165 184.9375 C-165.29084473 185.70586182 -165.58168945 186.47422363 -165.88134766 187.26586914 C-166.14737793 188.01215576 -166.4134082 188.75844238 -166.6875 189.52734375 C-166.91824219 190.17437256 -167.14898437 190.82140137 -167.38671875 191.48803711 C-168.30573998 195.25229247 -168.57209788 199.14888091 -169 203 C-148.87 203 -128.74 203 -108 203 C-106.02 198.05 -104.04 193.1 -102 188 C-96.0097465 177.84702797 -96.0097465 177.84702797 -93.23046875 175.515625 C-91.73669833 174.03653435 -91.73669833 174.03653435 -92.2043457 171.7878418 C-93.16707789 168.41458656 -94.66337245 165.86911993 -96.5 162.87890625 C-97.02805237 162.01279976 -97.02805237 162.01279976 -97.56677246 161.12919617 C-98.70375258 159.2689544 -99.85143164 157.41560502 -101 155.5625 C-101.77974177 154.29356755 -102.55903842 153.02436146 -103.33789062 151.75488281 C-110.90769111 139.20657669 -110.90769111 139.20657669 -119 127 C-124.38971419 127 -134.63576511 138.36890757 -138.25 141.875 Z M18 128 C12.51845235 135.17666486 8.13843186 143.31698896 3.53955078 151.07617188 C2.24301695 153.2617715 0.94007092 155.44346116 -0.36328125 157.625 C-1.19570147 159.0258106 -2.02774623 160.42684439 -2.859375 161.828125 C-3.43906036 162.79700653 -3.43906036 162.79700653 -4.03045654 163.78546143 C-5.99180958 167.10751203 -7.68831181 170.36909501 -9 174 C-8.56429688 174.43828125 -8.12859375 174.8765625 -7.6796875 175.328125 C-0.03442824 183.46982967 3.49069509 192.47208528 7 203 C26.8 203 46.6 203 67 203 C64.03606028 189.37413486 64.03606028 189.37413486 59.25 176.6875 C58.90638428 175.94169678 58.56276855 175.19589355 58.20874023 174.42749023 C49.64325947 156.34264118 35.52352541 139.36698103 19 128 C18.67 128 18.34 128 18 128 Z M-172 231 C-167.95610531 265.37310486 -155.29435278 294.80610708 -128 317 C-124.89489487 314.11768648 -122.7656614 311.23761932 -120.63671875 307.58203125 C-120.00378906 306.50348877 -119.37085938 305.42494629 -118.71875 304.3137207 C-118.0416389 303.14666324 -117.3645562 301.97958931 -116.6875 300.8125 C-115.6284864 299.00276384 -114.56727086 297.19433023 -113.50601196 295.38591003 C-112.77676476 294.1428476 -112.04823609 292.89936337 -111.32040405 291.6554718 C-107.43046291 285.01093968 -103.46862638 278.41023936 -99.5 271.8125 C-98.84733154 270.72622314 -98.19466309 269.63994629 -97.5222168 268.52075195 C-96.01552409 266.0134048 -94.50814604 263.50647315 -93 261 C-93.59421753 260.23598877 -93.59421753 260.23598877 -94.20043945 259.45654297 C-97.24088084 255.48703918 -99.96304662 251.62375446 -102.1875 247.125 C-102.65542969 246.19945312 -103.12335938 245.27390625 -103.60546875 244.3203125 C-105.4159739 240.00958596 -106.65650521 235.47831597 -108 231 C-129.12 231 -150.24 231 -172 231 Z M7 231 C5.35 235.95 3.7 240.9 2 246 C-0.2685737 249.84504017 -2.43120516 253.40239313 -5 257 C-5.66 257.99 -6.32 258.98 -7 260 C3.85771702 278.42119694 14.86392964 296.74575013 26 315 C44.02647462 306.5162532 56.02833084 282.19789826 62.53344727 264.43115234 C66.2076302 253.8495976 69 242.25465236 69 231 C48.54 231 28.08 231 7 231 Z M-71 276 C-71.64678711 277.10565308 -71.64678711 277.10565308 -72.30664062 278.23364258 C-82.81385881 296.18994588 -93.37450216 314.11342075 -104 332 C-86.92584952 345.57260651 -56.95366155 345.62042947 -36.484375 343.77294922 C-22.85936146 342.13064848 -9.33714554 337.9482666 3 332 C2.41712607 327.73727791 0.92697954 324.84055703 -1.32421875 321.1953125 C-1.66262787 320.64251617 -2.00103699 320.08971985 -2.34970093 319.52017212 C-3.45542046 317.71744569 -4.57137735 315.92130036 -5.6875 314.125 C-6.45378708 312.87968894 -7.21932367 311.63391579 -7.98413086 310.38769531 C-9.54754332 307.84196175 -11.11462515 305.29854565 -12.68457031 302.75683594 C-16.17236316 297.10523548 -19.61505801 291.42627855 -23.0625 285.75 C-24.21976787 283.8487853 -25.37729066 281.94772574 -26.53515625 280.046875 C-27.013479 279.26151367 -27.49180176 278.47615234 -27.98461914 277.66699219 C-28.31969482 277.11688477 -28.65477051 276.56677734 -29 276 C-29.83660156 276.2165625 -30.67320312 276.433125 -31.53515625 276.65625 C-45.55438725 280.00968732 -57.09166711 279.46360488 -71 276 Z " fill="#356666" transform="translate(496,229)"/>
<path d="M0 0 C1.65649414 2.00927734 1.65649414 2.00927734 3.28515625 4.8359375 C3.89351318 5.87306885 4.50187012 6.9102002 5.12866211 7.97875977 C6.08591187 9.65989868 6.08591187 9.65989868 7.0625 11.375 C8.39774086 13.66316708 9.73368436 15.95092427 11.0703125 18.23828125 C11.73063477 19.37861816 12.39095703 20.51895508 13.07128906 21.69384766 C15.79258276 26.35862731 18.60603704 30.96404097 21.4375 35.5625 C22.33213946 37.0220691 23.2266827 38.48169718 24.12109375 39.94140625 C25.05115234 41.45541016 25.05115234 41.45541016 26 43 C26.83660156 42.84402344 27.67320312 42.68804687 28.53515625 42.52734375 C40.04928358 40.60194704 50.44094599 41.32463774 62 43 C62.46784912 42.19481934 62.93569824 41.38963867 63.41772461 40.56005859 C65.19888593 37.49818773 66.98293511 34.43803505 68.76879883 31.37890625 C69.53293552 30.068684 70.29600161 28.75783662 71.05786133 27.44628906 C76.46758283 18.13570428 82.10416003 9.01080439 88 0 C106.75564515 6.840046 106.75564515 6.840046 111.35473633 12.73706055 C112 15 112 15 110.80932617 17.78637695 C110.14392822 18.84300537 109.47853027 19.89963379 108.79296875 20.98828125 C108.43655304 21.56418503 108.08013733 22.14008881 107.71292114 22.73344421 C106.94796495 23.96486159 106.17560407 25.1917041 105.39663696 26.41430664 C104.18773923 28.31212445 102.99904593 30.22124622 101.81518555 32.13476562 C98.51205817 37.46225816 95.15576408 42.75544962 91.7890625 48.04296875 C91.14287964 49.07587036 91.14287964 49.07587036 90.48364258 50.12963867 C89.39596384 51.86670493 88.28673069 53.59022372 87.17578125 55.3125 C85.71568261 57.87141629 85.71568261 57.87141629 86.6171875 60.1484375 C87.30167969 61.06496094 87.30167969 61.06496094 88 62 C88.65935547 62.88558594 88.65935547 62.88558594 89.33203125 63.7890625 C89.82058594 64.39492188 90.30914062 65.00078125 90.8125 65.625 C96.49557961 73.11443743 98.94118211 79.7353195 101 89 C121.13 89 141.26 89 162 89 C163 98 163 98 163 117 C142.54 117 122.08 117 101 117 C100.67 119.31 100.34 121.62 100 124 C98.04005119 130.79659668 94.6692142 136.31061375 90.48828125 141.96875 C88.96742713 143.92524124 88.96742713 143.92524124 88 146 C89.11027497 148.40394238 89.11027497 148.40394238 90.8046875 151.1171875 C91.7627832 152.72146606 91.7627832 152.72146606 92.74023438 154.3581543 C93.45161978 155.53055948 94.16321346 156.70283831 94.875 157.875 C95.59504279 159.07358932 96.31443512 160.27256962 97.03320312 161.47192383 C98.94655248 164.65902305 100.87055488 167.83954695 102.79821777 171.01800537 C104.01042214 173.01718832 105.22078451 175.01747578 106.43066406 177.01806641 C111.27186365 185.02135952 116.12870983 193.01497969 121 201 C117.22565602 205.80587875 113.68946084 209.23746495 108.4375 212.375 C107.34308594 213.04273438 106.24867188 213.71046875 105.12109375 214.3984375 C102.26697078 215.86300623 100.11564095 216.45944075 97 217 C96.56357178 216.25242432 96.12714355 215.50484863 95.67749023 214.73461914 C85.56406362 197.42090839 75.35995386 180.16759719 65 163 C64.07783691 163.21221191 63.15567383 163.42442383 62.20556641 163.64306641 C48.7618903 166.64795774 37.33899856 167.17309452 24 163 C16.73948593 174.32782907 9.90697158 185.89482019 3.15454102 197.5300293 C-1.06875655 204.79335643 -5.42230548 211.95260546 -10 219 C-18.49993541 215.67666387 -25.85601621 210.62738388 -33 205 C-32.32236919 201.23931756 -30.64422647 198.41634901 -28.7109375 195.14453125 C-28.20742516 194.28805496 -28.20742516 194.28805496 -27.69374084 193.41427612 C-26.59241719 191.54406228 -25.48386016 189.67825359 -24.375 187.8125 C-23.6117172 186.52014087 -22.8487813 185.22757681 -22.08618164 183.93481445 C-14.79052024 171.58374252 -7.41156695 159.28179176 0 147 C-0.39541992 146.49355957 -0.79083984 145.98711914 -1.19824219 145.46533203 C-4.3053841 141.41769604 -7.01299089 137.48422206 -9.25 132.875 C-9.72953125 131.90304687 -10.2090625 130.93109375 -10.703125 129.9296875 C-12.68592108 125.45047948 -14 121.93361241 -14 117 C-35.12 117 -56.24 117 -78 117 C-78 91 -78 91 -76 89 C-74.06693502 88.90603943 -72.13041162 88.88256483 -70.19506836 88.88647461 C-68.95385727 88.88655014 -67.71264618 88.88662567 -66.43382263 88.88670349 C-65.0691626 88.89181089 -63.70450298 88.8970269 -62.33984375 88.90234375 C-60.95121817 88.904208 -59.56259193 88.90563187 -58.17396545 88.90663147 C-54.51278885 88.91045613 -50.8516517 88.92028597 -47.19049072 88.93133545 C-43.45707737 88.94155068 -39.72365766 88.94612933 -35.99023438 88.95117188 C-28.66013823 88.96190829 -21.33007464 88.97898409 -14 89 C-13.79961624 88.2434613 -13.59923248 87.48692261 -13.39277649 86.7074585 C-13.12692245 85.71570618 -12.86106842 84.72395386 -12.5871582 83.70214844 C-12.32489944 82.71873474 -12.06264069 81.73532104 -11.79243469 80.72210693 C-9.64555088 73.347307 -5.53008128 66.92353647 -0.00390625 61.6328125 C1.22548927 60.00164756 1.22548927 60.00164756 0.78369141 57.78271484 C-0.17194469 54.38946245 -1.6845351 51.84546977 -3.53515625 48.84375 C-3.89210068 48.26016724 -4.2490451 47.67658447 -4.61680603 47.07531738 C-5.75842577 45.21250409 -6.91021507 43.35623066 -8.0625 41.5 C-8.80992828 40.28427411 -9.55667893 39.06813134 -10.30273438 37.8515625 C-10.67151703 37.25150391 -11.04029968 36.65144531 -11.42025757 36.03320312 C-12.16238516 34.82542008 -12.90361961 33.61708776 -13.64395142 32.40820312 C-15.52225852 29.35228259 -17.43341793 26.32702674 -19.41357422 23.3359375 C-19.7950914 22.74848755 -20.17660858 22.1610376 -20.56968689 21.55578613 C-21.62209601 19.93826989 -22.69033848 18.33108733 -23.75952148 16.72460938 C-25 14 -25 14 -24.39990234 11.76416016 C-22.19964599 8.99139203 -19.25052805 7.52746436 -16.1875 5.875 C-15.57068359 5.52824219 -14.95386719 5.18148438 -14.31835938 4.82421875 C-5.62182711 0 -5.62182711 0 0 0 Z " fill="#72ABCD" transform="translate(402,343)"/>
</svg>
